<svg version="1.1" id="Ebene_1" xmlns="http://www.w3.org/2000/svg" xmlns:xlink="http://www.w3.org/1999/xlink" x="0px" y="0px" viewBox="0 0 484 120" style="enable-background:new 0 0 484 120;" xml:space="preserve">
    <path d="M469.3,84.6c-1.1,0-2.4,1.5-2.4,1.5c-1.5,1.4-5,5.5-11.7,5.5c-5.3,0-9.8-3.3-9.8-9.8c0,0,3,0.7,4.2,0.7 c13.9,0,17.9-11,17.9-16.3c0-5.8-5.4-11.6-12.1-11.6c-9.6,0-23.5,11.1-23.5,27.9c0,0.2,0,0.4,0,0.6c-1.8,2.6-6.3,8.2-10.9,8.2 c-2.2,0-3.6-1.3-3.6-3.9c0-8.9,8.1-18.3,8.1-23.2c0-2.9-1.9-5.3-4.5-5.3c-2.6,0-4.2,1.4-9.1,1.4c-2.6,0-4.6-0.8-4.6-2.3 c0-1.8,1.4-3.5,1.4-6.4c0-2.2-3.7-5.7-6.8-5.7c-2.6,0-6.4,3.6-6.4,8.1c0,5.5,3.6,8.1,3.6,8.1c-3.1,10-7.3,16.3-9.3,19.3 c-0.1,0.2-0.2,0.3-0.2,0.3c0,0,0,0,0,0c0,0.1-0.1,0.1-0.1,0.2c0,0,0,0,0,0c-0.1,0.1-0.1,0.2-0.2,0.3c-1.3,2-6.3,8.9-11.4,8.9 c-1.9,0-3.1-1.3-3.1-3.1c0-7.5,6.4-20,6.4-23.3c0-3.8-4.5-5.2-7.8-5.2c0,0-3.1-5.2-12-5.2c-11,0-23,14-25,28.5 c-1.9,2.1-6.4,6.3-12,6.3c-1.8,0-3.1-0.5-4.2-1.2c6.2-7.5,10.2-17.4,10.2-24.6c0-5.1-5.5-8.9-8.8-8.9c-1.7,0-2.3,0.9-2.3,2.2 c0,9.6-2.6,20.3-6.4,27.3c-1.3,2.5-3.2,5.3-5,6.7c-1.2,0.9-2.5,1.4-3.7,1.4c-1.9,0-2.9-1.2-2.9-3.3c0-11,6.8-21.7,6.8-28.1 c0-1.6-5.4-6.3-8.6-6.3c-1.4,0-2.5,0.9-3.1,2.1c-2.2,5.6-5.3,16-8.4,23.8c-2.6,6.5-7.4,11.3-10.8,11.3c-1.7,0-2.5-1.5-2.5-3.3 c0-10.7,7.2-21,7.2-27.6c0-1.6-5.4-6.3-8.7-6.3c-1.3,0-2.4,0.9-3,2.1c-2.2,5.2-6.7,18.1-8.1,26.8c-2,2.7-6.3,7.8-10.7,7.8 c-2.2,0-3.6-1.3-3.6-3.9c0-8.9,8.1-18.3,8.1-23.2c0-2.9-1.9-5.3-4.5-5.3c-2.6,0-4.2,1.4-9.1,1.4c-2.6,0-4.6-0.8-4.6-2.3 c0-1.8,1.4-3.5,1.4-6.4c0-2.2-3.7-5.7-6.8-5.7c-2.6,0-6.4,3.6-6.4,8.1c0,5.5,3.6,8.1,3.6,8.1c-3.1,10-7.3,16.3-9.4,19.3 c-0.1,0.2-0.2,0.3-0.2,0.3c0,0,0,0,0,0c0,0,0,0.1,0,0.1c-0.6,0.9-6.9,10-16.9,10c-5.3,0-9.7-3.7-9.7-10.2c0,0,3,0.7,4.2,0.7 c13.9,0,17.9-11,17.9-16.3c0-5.8-5.4-11.6-12.1-11.6c-9.6,0-23.5,11.1-23.5,27.9c0,0.2,0,0.4,0,0.6c-1.8,2.6-6.2,8.2-10.8,8.2 c-4.1,0-5.9-4.5-5.9-10.6c0-1.8,0.1-3.6,0.4-5.5c0,0,24.2-33.3,24.2-44c0-5.1-5.1-10.2-9.6-10.2c-10.1,0-19.3,17.3-24.3,35.3 c0,0-2.6-1.8-6.9-1.8c-9.7,0-24.7,11.4-26.1,28.1c-1.6,2.3-6.4,8.6-11.2,8.6c-2.2,0-3.5-1.6-3.5-4.2c0-7.9,5.8-16.5,5.8-23.1 c0-4.3-4.5-9.5-9.4-9.5c-9.3,0-17.3,7-17.3,7c-3.4-5.3-6-5.9-7.7-5.9c-1.3,0-2.4,0.8-3,2.1c-1.9,4.7-6,15.3-7.9,25.4 c-1.8,2.6-6.3,8.2-10.9,8.2c-2.2,0-3.5-1.6-3.5-4.2c0-10.7,6.3-19.7,6.3-26.3c0-1.6-5.4-6.3-8.6-6.3c-1.4,0-2.5,0.9-3.1,2.1 c-2.6,6.2-6.8,22.6-9.2,27.3c-1.8,3.5-6.2,7.8-9.7,7.8c-1.6,0-2.5-1.5-2.5-3.3c0-10.7,7.1-21,7.1-27.6c0-1.6-5.4-6.3-8.7-6.3 c-1.3,0-2.4,0.9-3,2.1c-2.6,6.2-8.6,23.4-8.6,31.4c0,5.9,6.4,10.7,11.4,10.7c5.7,0,11.6-4.2,15.1-8.2c1.3,4.1,4.9,8.2,13.3,8.2 c5.4,0,10.2-3.4,13.5-6.8c0,0.2,0,0.5,0,0.7c0,3.5,4.5,6,10.3,6c1.5,0,2.4-0.3,2.4-2.2c0-21.1,10.3-34.2,16.9-34.2 c1.2,0,2.2,0.8,2.2,1.8c0,6.6-5.6,14.5-5.6,23.5c0,6.2,5.6,11.1,14,11.1c6.6,0,12.2-5,15.5-8.9c1.8,5.4,6.8,8.9,11.8,8.9 c9.1,0,18-10.8,18-10.8c0.4,3.9,5.7,10.8,14,10.8c7,0,12.8-5.5,16-9.5c2.8,5.8,9.4,9.5,17.6,9.5c16.7,0,24.5-13.5,24.5-13.5s0,0,0,0 c2.3-3.4,6.5-10.1,10.7-20.8c0,0,6.6,0.4,6.6,2.6c0,3.4-6.9,11-6.9,20.7c0,6,5.6,11,14,11c5.9,0,11-4,14.4-7.7 c1.7,4.5,6.7,7.7,10.9,7.7c8.5,0,15.4-8.8,15.4-8.8s5,8.8,13,8.8c4.4,0,8.8-1.9,12.7-4.9c2.5,0.6,5.3,0.9,7.5,0.9 c6.5,0,11.4-2.4,14.6-4.9c1.1,5.3,5.6,8.9,10.7,8.9c8.4,0,15.6-9.3,15.6-9.3c0.8,6.2,5.5,9.3,11.6,9.3c10.9,0,18.9-13.5,18.9-13.5 s0,0,0,0c2.3-3.4,6.5-10.1,10.7-20.8c0,0,6.6,0.4,6.6,2.6c0,3.4-6.9,11-6.9,20.7c0,6,5.6,11,14,11c7,0,12.8-5.5,16-9.5 c2.8,5.8,9.4,9.5,17.6,9.5c11.9,0,19.1-9.3,19.1-9.3s1.4-1.6,1.4-2.6C471.6,85.6,470.6,84.6,469.3,84.6z M458.3,60.3 c1.2,0,2,0.8,2,2.2c0,4.6-6.3,14.9-14.3,14.9C445.9,71.7,452.2,60.3,458.3,60.3z M206.3,60.3c1.2,0,2,0.8,2,2.2 c0,4.6-6.3,14.9-14.3,14.9C193.9,71.7,200.2,60.3,206.3,60.3z M180.2,27.8c1,0,1.5,0.8,1.5,1.9c0,9.6-17.5,37.6-17.5,37.6 C168.1,48,176.4,27.8,180.2,27.8z M150.6,82.2c0,0-7.5,9.1-12.1,9.1c-2.5,0-4.1-2.3-4.1-6.3c0-9,7.9-24.2,15-24.2 c1.9,0,3.1,1.8,3.1,1.8C151.5,69.4,150.7,75.7,150.6,82.2z M352.5,90.5c-2.3,0-3.2-1.8-3.2-4.9c0-9.2,7.8-24.4,14.2-24.4 c2.2,0,4,1.5,4,4.7C367.5,74.3,357.8,90.5,352.5,90.5z"></path>
</svg>
