<svg version="1.1" id="temple_logo" xmlns="http://www.w3.org/2000/svg" xmlns:xlink="http://www.w3.org/1999/xlink" x="0px" y="0px" viewBox="0 0 283.5 185.5" style="enable-background:new 0 0 283.5 185.5;" xml:space="preserve">
	<path d="M38.1,114.2h-4.8c-2.3,0-3.9-0.7-4.8-2.2c-0.9-1.6-1.4-3.9-1.4-7V79.9h10.1c1.9,0,3-1.1,3-3 v-1.3c0-1.9-1.1-3-3-3H27.1V58.7c0-1.9-1.1-3-3-3h-1.5c-1.9,0-3,1.1-3,3v14.1h-6c-1.9,0-3,1.1-3,3V77c0,1.9,1.1,3,3,3h6v25.5 c0,2.2,0.2,4.2,0.6,6.1c0.4,1.9,1.1,3.7,2.1,5.1c1,1.5,2.4,2.7,4.2,3.5c1.7,0.8,3.8,1.3,6.3,1.3h5.3c1.9,0,3-1.1,3-3v-1.3 C41.1,115.3,40,114.2,38.1,114.2z"/>
	<path d="M64.8,71.8c-3.1,0-5.8,0.5-8.3,1.6c-2.5,1.1-4.6,2.6-6.3,4.5c-1.7,1.9-3.1,4.2-4.1,6.8 c-1,2.6-1.7,5.5-1.9,8.7l0,0c-0.1,0.9-0.1,2.1-0.1,3.7s0,2.7,0.1,3.7c0.2,3.1,0.9,6.1,1.9,8.7c1,2.6,2.4,5,4.2,6.9 c1.8,1.9,3.9,3.4,6.4,4.5c2.4,1,5.2,1.6,8.2,1.6c2.9,0,5.6-0.4,8-1.3c2.4-0.8,4.4-1.9,6-3c1.7-1.2,3-2.5,3.9-3.8 c1-1.4,1.5-2.6,1.6-3.6c0.1-0.9-0.2-1.6-0.8-2.2c-0.6-0.5-1.3-0.7-2-0.7H80c-0.8,0-1.4,0.1-1.9,0.3c-0.5,0.2-1,0.8-1.6,1.7 c-0.1,0.2-0.5,0.6-1.2,1.4c-0.6,0.6-1.3,1.2-2.3,1.8c-0.9,0.6-2.1,1.1-3.5,1.6c-1.3,0.4-2.9,0.7-4.7,0.7c-2,0-3.8-0.4-5.4-1.2 c-1.6-0.8-3-1.9-4.1-3.3c-1.1-1.4-2-3-2.7-4.8c-0.6-1.8-1-3.6-1.1-5.5h31c0.9,0,1.6-0.3,2.2-0.8c0.6-0.5,0.9-1.3,0.9-2.2V96 c0-7.4-1.8-13.4-5.4-17.7C76.6,74,71.4,71.8,64.8,71.8z M51.7,93.3c0.1-1.9,0.4-3.6,0.9-5.3c0.6-1.8,1.5-3.4,2.6-4.7 c1.1-1.3,2.5-2.4,4.1-3.1c1.6-0.7,3.5-1.1,5.6-1.1c2.1,0,3.9,0.4,5.6,1.1c1.6,0.7,3.1,1.8,4.2,3.1c1.1,1.3,2,2.9,2.6,4.7 c0.6,1.6,0.9,3.4,0.9,5.3H51.7z"/>
	<path d="M153.5,77.1c-1.6-1.7-3.5-3-5.6-3.9c-2.1-0.9-4.5-1.3-7-1.3c-3.6,0-6.9,0.8-9.7,2.4 c-2.3,1.3-4.1,3-5.5,5c-1.4-2.2-3.1-3.9-5.2-5.2c-2.5-1.5-5.6-2.3-9.2-2.3c-3.1,0-5.8,0.6-8,1.7c-1.4,0.7-2.7,1.6-3.8,2.7v-0.5 c0-1.9-1.1-3-3-3h-1.5c-1.9,0-3,1.1-3,3v42.7c0,1.9,1.1,3,3,3h1.5c1.9,0,3-1.1,3-3V93.1c0-2.8,0.3-5.1,1-6.9 c0.7-1.8,1.5-3.2,2.6-4.3c1.1-1.1,2.2-1.8,3.5-2.2c2.7-0.9,5.4-0.8,8,0c1.3,0.4,2.5,1.2,3.5,2.2c1,1.1,1.9,2.5,2.6,4.3 c0.7,1.8,1,4.2,1,7v25.2c0,1.9,1.1,3,3,3h1.5c1.9,0,3-1.1,3-3V93.2c0-2.8,0.3-5.1,1-7c0.7-1.8,1.5-3.2,2.6-4.3 c1.1-1.1,2.2-1.8,3.5-2.2c2.8-1,5.7-0.8,8.2,0c1.3,0.4,2.5,1.2,3.5,2.2c1,1.1,1.9,2.5,2.5,4.3c0.6,1.8,0.9,4.2,0.9,7v25.2 c0,1.9,1.1,3,3,3h1.5c1.9,0,3-1.1,3-3V92.3c0-3.3-0.5-6.3-1.4-8.8C156.4,81,155.1,78.8,153.5,77.1z"/>
	<path d="M207.8,86.1c-0.7-2.7-1.9-5.1-3.4-7.2c-1.6-2.1-3.7-3.9-6.2-5.1c-2.6-1.3-5.7-1.9-9.3-1.9 c-3.9,0-7.2,0.7-9.7,2.1c-1.6,0.9-3.1,2-4.3,3.3v-1.5c0-1.9-1.1-3-3-3h-1.5c-1.9,0-3,1.1-3,3v59.8c0,1.9,1.1,3,3,3h1.5 c1.9,0,3-1.1,3-3v-18.6c1.2,1.2,2.7,2.3,4.3,3.3c2.5,1.5,5.8,2.2,9.7,2.2c3.6,0,6.7-0.7,9.3-1.9c2.6-1.3,4.6-3,6.2-5.1 c1.6-2.1,2.7-4.5,3.4-7.2c0.7-2.6,1.1-5.3,1.2-8c0.1-0.9,0.1-1.9,0.1-3c0-1.1,0-2.1-0.1-3C208.9,91.4,208.5,88.7,207.8,86.1z M201.5,99.5c-0.1,2.1-0.4,4.1-0.9,6c-0.5,1.9-1.2,3.5-2.3,5c-1,1.4-2.3,2.5-4,3.3c-1.6,0.8-3.7,1.2-6.1,1.2c-2.3,0-4.4-0.4-6-1.3 c-1.7-0.9-3.1-2-4.2-3.3c-1.1-1.3-1.9-2.9-2.5-4.5c-0.5-1.7-0.8-3.5-0.9-5.2c-0.1-0.9-0.1-2-0.1-3.4c0-1.4,0-2.6,0.1-3.4l0,0 c0.1-1.8,0.4-3.5,0.9-5.3c0.5-1.7,1.4-3.3,2.4-4.8c1.1-1.4,2.5-2.6,4.1-3.5c1.6-0.9,3.7-1.3,6.1-1.3c2.5,0,4.5,0.4,6.1,1.3 c1.6,0.9,3,2,4,3.4c1,1.4,1.8,3.1,2.3,4.9c0.5,1.9,0.8,3.9,0.9,6C201.6,96.2,201.6,97.9,201.5,99.5z"/>
	<path d="M220.3,55.7h-1.5c-1.9,0-3,1.1-3,3v59.8c0,1.9,1.1,3,3,3h1.5c1.9,0,3-1.1,3-3V58.7 C223.3,56.8,222.2,55.7,220.3,55.7z"/>
	<path d="M266.1,78.3c-3.7-4.3-8.8-6.5-15.4-6.5c-3.1,0-5.8,0.5-8.3,1.6c-2.5,1.1-4.6,2.6-6.3,4.5 c-1.7,1.9-3.1,4.2-4.1,6.8c-1,2.6-1.7,5.5-1.9,8.7l0,0c-0.1,0.9-0.1,2.1-0.1,3.7s0,2.7,0.1,3.7c0.2,3.1,0.9,6.1,1.9,8.7 c1,2.6,2.4,5,4.2,6.9c1.8,1.9,3.9,3.4,6.4,4.5c2.4,1,5.2,1.6,8.2,1.6c2.9,0,5.6-0.4,8-1.3c2.4-0.8,4.4-1.9,6-3 c1.7-1.2,3-2.5,3.9-3.8c1-1.4,1.5-2.6,1.6-3.6c0.1-0.9-0.2-1.6-0.8-2.2c-0.6-0.5-1.3-0.7-2-0.7h-1.4c-0.8,0-1.4,0.1-1.9,0.3 c-0.5,0.2-1,0.8-1.6,1.7c-0.1,0.2-0.5,0.6-1.2,1.4c-0.6,0.6-1.3,1.2-2.3,1.8c-0.9,0.6-2.1,1.1-3.5,1.6c-1.3,0.4-2.9,0.7-4.7,0.7 c-2,0-3.8-0.4-5.4-1.2c-1.6-0.8-3-1.9-4.1-3.3c-1.1-1.4-2-3-2.7-4.8c-0.6-1.8-1-3.6-1.1-5.5h31c0.9,0,1.6-0.3,2.2-0.8 c0.6-0.5,0.9-1.3,0.9-2.2V96C271.5,88.6,269.7,82.6,266.1,78.3z M237.5,93.3c0.1-1.9,0.4-3.6,0.9-5.3c0.6-1.8,1.5-3.4,2.6-4.7 c1.1-1.3,2.5-2.4,4.1-3.1c1.6-0.7,3.5-1.1,5.6-1.1c2.1,0,3.9,0.4,5.6,1.1c1.6,0.7,3.1,1.8,4.2,3.1c1.1,1.3,2,2.9,2.6,4.7 c0.6,1.6,0.9,3.4,0.9,5.3H237.5z"/>
</svg>
