<?xml version="1.0" encoding="utf-8"?>
<!-- Generator: Adobe Illustrator 19.0.0, SVG Export Plug-In . SVG Version: 6.00 Build 0)  -->
<svg version="1.1" id="temple_logo" xmlns="http://www.w3.org/2000/svg" xmlns:xlink="http://www.w3.org/1999/xlink" x="0px"
	 y="0px" viewBox="0 49 283.5 185.5" style="enable-background:new 0 49 283.5 185.5;" xml:space="preserve">
<style type="text/css">
	.st0{fill:#B4B4B4;}
	.st1{fill:#0495F7;}
</style>
<g>
	<path class="st0" d="M81.3,147.2h-0.9c-0.4,0-0.7-0.1-0.9-0.4c-0.2-0.3-0.3-0.7-0.3-1.3v-4.6h1.8c0.3,0,0.5-0.2,0.5-0.5v-0.2
		c0-0.3-0.2-0.5-0.5-0.5h-1.8v-2.5c0-0.3-0.2-0.5-0.5-0.5h-0.3c-0.3,0-0.5,0.2-0.5,0.5v2.6h-1.1c-0.3,0-0.5,0.2-0.5,0.5v0.2
		c0,0.3,0.2,0.5,0.5,0.5H78v4.6c0,0.4,0,0.8,0.1,1.1c0.1,0.3,0.2,0.7,0.4,0.9c0.2,0.3,0.4,0.5,0.8,0.6c0.3,0.1,0.7,0.2,1.1,0.2h1
		c0.3,0,0.5-0.2,0.5-0.5v-0.2C81.9,147.4,81.7,147.2,81.3,147.2z"/>
	<path class="st0" d="M86.2,139.5c-0.6,0-1.1,0.1-1.5,0.3c-0.5,0.2-0.8,0.5-1.1,0.8c-0.3,0.3-0.6,0.8-0.7,1.2
		c-0.2,0.5-0.3,1-0.3,1.6c0,0.2,0,0.4,0,0.7c0,0.3,0,0.5,0,0.7c0,0.6,0.2,1.1,0.3,1.6c0.2,0.5,0.4,0.9,0.8,1.3
		c0.3,0.3,0.7,0.6,1.2,0.8c0.4,0.2,0.9,0.3,1.5,0.3c0.5,0,1-0.1,1.5-0.2c0.4-0.1,0.8-0.3,1.1-0.5c0.3-0.2,0.5-0.5,0.7-0.7
		c0.2-0.3,0.3-0.5,0.3-0.7c0-0.2,0-0.3-0.1-0.4c-0.1-0.1-0.2-0.1-0.4-0.1h-0.3c-0.1,0-0.3,0-0.3,0.1c-0.1,0-0.2,0.1-0.3,0.3
		c0,0-0.1,0.1-0.2,0.3c-0.1,0.1-0.2,0.2-0.4,0.3c-0.2,0.1-0.4,0.2-0.6,0.3c-0.2,0.1-0.5,0.1-0.9,0.1c-0.4,0-0.7-0.1-1-0.2
		c-0.3-0.1-0.5-0.3-0.7-0.6c-0.2-0.3-0.4-0.5-0.5-0.9c-0.1-0.3-0.2-0.7-0.2-1h5.6c0.2,0,0.3-0.1,0.4-0.1c0.1-0.1,0.2-0.2,0.2-0.4
		v-0.3c0-1.3-0.3-2.4-1-3.2C88.3,139.9,87.4,139.5,86.2,139.5z M83.8,143.4c0-0.3,0.1-0.7,0.2-1c0.1-0.3,0.3-0.6,0.5-0.9
		c0.2-0.2,0.5-0.4,0.7-0.6c0.3-0.1,0.6-0.2,1-0.2c0.4,0,0.7,0.1,1,0.2c0.3,0.1,0.6,0.3,0.8,0.6c0.2,0.2,0.4,0.5,0.5,0.9
		c0.1,0.3,0.2,0.6,0.2,1H83.8z"/>
	<path class="st0" d="M102.3,140.4c-0.3-0.3-0.6-0.5-1-0.7c-0.4-0.2-0.8-0.2-1.3-0.2c-0.7,0-1.3,0.1-1.8,0.4c-0.4,0.2-0.7,0.5-1,0.9
		c-0.3-0.4-0.6-0.7-0.9-0.9c-0.5-0.3-1-0.4-1.7-0.4c-0.6,0-1.1,0.1-1.5,0.3c-0.3,0.1-0.5,0.3-0.7,0.5v-0.1c0-0.3-0.2-0.5-0.5-0.5
		h-0.3c-0.3,0-0.5,0.2-0.5,0.5v7.8c0,0.3,0.2,0.5,0.5,0.5h0.3c0.3,0,0.5-0.2,0.5-0.5v-4.6c0-0.5,0.1-0.9,0.2-1.3s0.3-0.6,0.5-0.8
		c0.2-0.2,0.4-0.3,0.6-0.4c0.5-0.2,1-0.1,1.5,0c0.2,0.1,0.5,0.2,0.6,0.4c0.2,0.2,0.3,0.5,0.5,0.8s0.2,0.8,0.2,1.3v4.6
		c0,0.3,0.2,0.5,0.5,0.5h0.3c0.3,0,0.5-0.2,0.5-0.5v-4.6c0-0.5,0.1-0.9,0.2-1.3c0.1-0.3,0.3-0.6,0.5-0.8c0.2-0.2,0.4-0.3,0.6-0.4
		c0.5-0.2,1-0.1,1.5,0c0.2,0.1,0.5,0.2,0.6,0.4c0.2,0.2,0.3,0.5,0.5,0.8c0.1,0.3,0.2,0.8,0.2,1.3v4.6c0,0.3,0.2,0.5,0.5,0.5h0.3
		c0.3,0,0.5-0.2,0.5-0.5v-4.7c0-0.6-0.1-1.1-0.3-1.6C102.8,141.1,102.6,140.7,102.3,140.4z"/>
	<path class="st0" d="M112.2,142.1c-0.1-0.5-0.3-0.9-0.6-1.3c-0.3-0.4-0.7-0.7-1.1-0.9c-0.5-0.2-1-0.3-1.7-0.3
		c-0.7,0-1.3,0.1-1.8,0.4c-0.3,0.2-0.6,0.4-0.8,0.6v-0.3c0-0.3-0.2-0.5-0.5-0.5h-0.3c-0.3,0-0.5,0.2-0.5,0.5v10.9
		c0,0.3,0.2,0.5,0.5,0.5h0.3c0.3,0,0.5-0.2,0.5-0.5v-3.4c0.2,0.2,0.5,0.4,0.8,0.6c0.5,0.3,1.1,0.4,1.8,0.4c0.7,0,1.2-0.1,1.7-0.3
		c0.5-0.2,0.8-0.5,1.1-0.9c0.3-0.4,0.5-0.8,0.6-1.3c0.1-0.5,0.2-1,0.2-1.5c0-0.2,0-0.3,0-0.5c0-0.2,0-0.4,0-0.5
		C112.4,143,112.3,142.5,112.2,142.1z M111,144.5c0,0.4-0.1,0.7-0.2,1.1c-0.1,0.3-0.2,0.6-0.4,0.9c-0.2,0.3-0.4,0.5-0.7,0.6
		c-0.3,0.1-0.7,0.2-1.1,0.2c-0.4,0-0.8-0.1-1.1-0.2c-0.3-0.2-0.6-0.4-0.8-0.6c-0.2-0.2-0.3-0.5-0.5-0.8c-0.1-0.3-0.1-0.6-0.2-0.9
		c0-0.2,0-0.4,0-0.6c0-0.3,0-0.5,0-0.6c0-0.3,0.1-0.6,0.2-1c0.1-0.3,0.3-0.6,0.4-0.9c0.2-0.3,0.5-0.5,0.7-0.6
		c0.3-0.2,0.7-0.2,1.1-0.2c0.5,0,0.8,0.1,1.1,0.2c0.3,0.2,0.5,0.4,0.7,0.6c0.2,0.3,0.3,0.6,0.4,0.9c0.1,0.3,0.1,0.7,0.2,1.1
		C111.1,143.9,111.1,144.2,111,144.5z"/>
	<path class="st0" d="M114.5,136.5h-0.3c-0.3,0-0.5,0.2-0.5,0.5v10.9c0,0.3,0.2,0.5,0.5,0.5h0.3c0.3,0,0.5-0.2,0.5-0.5v-10.9
		C115,136.7,114.8,136.5,114.5,136.5z"/>
	<path class="st0" d="M122.8,140.6c-0.7-0.8-1.6-1.2-2.8-1.2c-0.6,0-1.1,0.1-1.5,0.3c-0.5,0.2-0.8,0.5-1.1,0.8
		c-0.3,0.3-0.6,0.8-0.7,1.2c-0.2,0.5-0.3,1-0.3,1.6c0,0.2,0,0.4,0,0.7c0,0.3,0,0.5,0,0.7c0,0.6,0.2,1.1,0.3,1.6
		c0.2,0.5,0.4,0.9,0.8,1.3c0.3,0.3,0.7,0.6,1.2,0.8c0.4,0.2,0.9,0.3,1.5,0.3c0.5,0,1-0.1,1.5-0.2c0.4-0.1,0.8-0.3,1.1-0.5
		c0.3-0.2,0.5-0.5,0.7-0.7c0.2-0.3,0.3-0.5,0.3-0.7c0-0.2,0-0.3-0.1-0.4c-0.1-0.1-0.2-0.1-0.4-0.1h-0.3c-0.1,0-0.3,0-0.3,0.1
		c-0.1,0-0.2,0.1-0.3,0.3c0,0-0.1,0.1-0.2,0.3c-0.1,0.1-0.2,0.2-0.4,0.3c-0.2,0.1-0.4,0.2-0.6,0.3c-0.2,0.1-0.5,0.1-0.9,0.1
		c-0.4,0-0.7-0.1-1-0.2s-0.5-0.3-0.7-0.6c-0.2-0.3-0.4-0.5-0.5-0.9c-0.1-0.3-0.2-0.7-0.2-1h5.6c0.2,0,0.3-0.1,0.4-0.1
		c0.1-0.1,0.2-0.2,0.2-0.4v-0.3C123.8,142.5,123.4,141.4,122.8,140.6z M117.6,143.4c0-0.3,0.1-0.7,0.2-1c0.1-0.3,0.3-0.6,0.5-0.9
		c0.2-0.2,0.5-0.4,0.7-0.6c0.3-0.1,0.6-0.2,1-0.2c0.4,0,0.7,0.1,1,0.2c0.3,0.1,0.6,0.3,0.8,0.6c0.2,0.2,0.4,0.5,0.5,0.9
		c0.1,0.3,0.2,0.6,0.2,1H117.6z"/>
</g>
<path class="st1" d="M65.3,139.9h-3v-7c0-1.7-1.1-2.8-2.8-2.8h-0.9c-1.7,0-2.8,1.1-2.8,2.8v7H51c-1.7,0-2.8,1.1-2.8,2.8v0v0.8v0
	c0,1.7,1.1,2.8,2.8,2.8h4.8v7c0,1.7,1.1,2.8,2.8,2.8h0.9c1.7,0,2.8-1.1,2.8-2.8v-7h3c1.3-0.2,2.2-1.3,2.2-2.8v-0.2v-0.5v-0.2
	C67.5,141.2,66.7,140.1,65.3,139.9z"/>
</svg>
