<?xml version="1.0" encoding="utf-8"?>
<!-- Generator: Adobe Illustrator 19.2.1, SVG Export Plug-In . SVG Version: 6.00 Build 0)  -->
<svg version="1.1" id="Ebene_1" xmlns="http://www.w3.org/2000/svg" xmlns:xlink="http://www.w3.org/1999/xlink" x="0px" y="0px" viewBox="0 0 98.2 47" style="enable-background:new 0 0 98.2 47;" xml:space="preserve">
	<path d="M39.1,29.5c0,3.6,9.1,2.3,9.1,7.9c0,3.2-2.6,4.6-5.9,4.6c-2.9,0-5-1.4-5.9-2.5c-0.2-0.2-0.2-0.4-0.2-0.7c0-0.6,0.5-1,1-1 c0.2,0,0.5,0.1,0.8,0.3c1.1,1.1,2.5,1.7,4.4,1.7c2,0,3.7-0.7,3.7-2.5c0-3.6-9.1-2.2-9.1-7.9c0-2.9,2.4-4.2,5.3-4.2 c2.4,0,4.2,0.8,5.3,2.2c0.1,0.1,0.2,0.3,0.2,0.7c0,0.6-0.5,1-1,1c-0.2,0-0.5,0-0.7-0.3c-0.9-0.9-2-1.5-3.8-1.5 C40.6,27.4,39.1,27.9,39.1,29.5z"/>
	<path d="M64.5,31.4v9.3c0,0.6-0.5,1.1-1.1,1.1s-1.1-0.5-1.1-1.1v-8.8c0-2.7-0.8-4.6-4.2-4.6c-3.4,0-4.6,2.1-4.6,4.9v8.6 c0,0.6-0.5,1.1-1.1,1.1c-0.6,0-1.1-0.5-1.1-1.1V17.9c0-0.6,0.5-1.1,1.1-1.1c0.6,0,1.1,0.5,1.1,1.1v9.8c0.7-1.3,2.4-2.4,4.6-2.4 C63.5,25.2,64.5,28.4,64.5,31.4z"/>
	<path d="M70.9,40.7c0,0.6-0.5,1.1-1.1,1.1s-1.1-0.5-1.1-1.1V26.6c0-0.6,0.5-1.1,1.1-1.1s1.1,0.5,1.1,1.1V40.7z"/>
	<path d="M75.6,27.8c-0.6,0-1-0.5-1-1c0-0.6,0.5-1,1-1h1.2v-2.1c0-3.1,1.8-6,6-6c0.6,0,1,0.5,1,1s-0.5,1-1,1c-2.7,0-3.8,1.6-3.8,3.9 v2.1h3.2c0.6,0,1,0.5,1,1c0,0.6-0.5,1-1,1H79v12.9c0,0.6-0.5,1.1-1.1,1.1c-0.6,0-1.1-0.5-1.1-1.1V27.8H75.6z"/>
	<path d="M87.4,22.7c0-0.6,0.5-1.1,1.1-1.1c0.6,0,1.1,0.5,1.1,1.1v3h2.3c0.6,0,1,0.5,1,1c0,0.6-0.5,1-1,1h-2.3v9.6 c0,1.5,0.8,2.3,2,2.3c0.6,0,1.1,0.5,1.1,1s-0.5,1-1.1,1c-2.7,0-4.2-1.8-4.2-4.4v-9.6h-1.4c-0.6,0-1-0.5-1-1c0-0.6,0.5-1,1-1h1.4 V22.7z"/>
	<path d="M22.6,41.7H8.7c-0.5,0-1-0.4-1-0.9l-3-26.4c0-0.3,0.1-0.6,0.3-0.8c0.2-0.2,0.5-0.3,0.8-0.3h19.9c0.3,0,0.6,0.1,0.8,0.3 c0.2,0.2,0.3,0.5,0.3,0.8l-3,26.4C23.6,41.3,23.1,41.7,22.6,41.7z M9.6,39.6h12.1l2.8-24.3H6.9L9.6,39.6z"/>
	<path d="M7.3,29.3c-0.4,0-0.8-0.3-1-0.7c-0.2-0.5,0.1-1.1,0.6-1.3l17.4-6.2c0.5-0.2,1.1,0.1,1.3,0.6c0.2,0.5-0.1,1.1-0.6,1.3 L7.6,29.2C7.5,29.2,7.4,29.3,7.3,29.3z"/>
	<path d="M14.6,35.5c-0.5,0-1-0.4-1-0.9L10.6,8.8L2.5,5.9C2,5.7,1.7,5.1,1.9,4.6C2.1,4.1,2.7,3.8,3.2,4L11.9,7 c0.4,0.1,0.6,0.5,0.7,0.9l3,26.4c0.1,0.6-0.3,1.1-0.9,1.1C14.6,35.5,14.6,35.5,14.6,35.5z"/>
	<circle cx="69.8" cy="20.8" r="1.3"/>
</svg>
