<svg version="1.1" id="#branch-icon" xmlns="http://www.w3.org/2000/svg" x="0px" y="0px" viewBox="0 0 32 36.6666679" style="enable-background:new 0 0 32 36.6666679;" xml:space="preserve">
    <path d="M26.8745117,28.9140625c-1.6105347,0-2.9382935,1.1879272-3.1808472,2.7314453H22.293457c-1.6518555,0-2.9960938-1.3442383-2.9960938-2.996582v-8.3837891h4.5252075c0.2425537,1.5435181,1.5703125,2.7314453,3.1808472,2.7314453c1.7817383,0,3.230957-1.449707,3.230957-3.2314453s-1.4492188-3.2314453-3.230957-3.2314453c-1.6105347,0-2.9382935,1.1879272-3.1808472,2.7314453h-4.5252075v-0.8666992c0-2.2744141-1.8505859-4.125-4.125-4.125h-4.6025391c-1.5708008,0-2.8617554-1.1687622-3.0800171-2.6801147c2.5971069-0.2766113,4.6342163-2.4547729,4.6342163-5.1240845c0-2.855957-2.3232422-5.1791992-5.1791992-5.1791992S1.765625,3.6132812,1.765625,6.4692383c0,2.7005005,2.0845947,4.8991699,4.7251587,5.1333008c0.2294922,2.0587158,1.960144,3.6708984,4.0790405,3.6708984h4.6025391c1.7231445,0,3.125,1.4018555,3.125,3.125v10.2504883c0,2.2036133,1.7924805,3.996582,3.9960938,3.996582h1.4002075c0.2425537,1.543457,1.5703125,2.730957,3.1808472,2.730957c1.7817383,0,3.2314453-1.4492188,3.2314453-3.230957S28.65625,28.9140625,26.8745117,28.9140625z M27.003418,17.5336914c1.2299805,0,2.230957,1.0009766,2.230957,2.2314453s-1.0009766,2.2314453-2.230957,2.2314453c-1.2304688,0-2.2314453-1.0009766-2.2314453-2.2314453S25.7729492,17.5336914,27.003418,17.5336914z M2.765625,6.4692383c0-2.3041992,1.875-4.1791992,4.1791992-4.1791992s4.1791992,1.875,4.1791992,4.1791992s-1.875,4.1791992-4.1791992,4.1791992S2.765625,8.7734375,2.765625,6.4692383z M26.8745117,34.3764648c-1.2304688,0-2.2314453-1.0009766-2.2314453-2.230957c0-1.2304688,1.0009766-2.2314453,2.2314453-2.2314453s2.2314453,1.0009766,2.2314453,2.2314453C29.105957,33.3754883,28.1049805,34.3764648,26.8745117,34.3764648z"/>
</svg>
