<svg xmlns="http://www.w3.org/2000/svg" viewBox="0 0 192.81152 140.53532"><title>logo</title><path d="M127.76319,170.26766l-.48059-.01045a10.698,10.698,0,0,1-10.21253-11.16849l2.19138-48.80075c-12.47444.51716-24.81175.53544-37.38935.0431l2.19008,48.75765a10.71041,10.71041,0,0,1-10.20731,11.16849l-.48712.01045a10.67579,10.67579,0,0,1-10.68137-10.21775l-2.29194-51.05482c-19.89876-1.70949-32.43588-4.115-32.97916-4.21953a10.69905,10.69905,0,0,1,4.05628-21.01013c.461.0888,10.96606,2.066,27.95386,3.63968L58.18217,59.72159c-7.12135-.53152-14.15-1.19233-20.92524-1.96546-15.38148-1.75781-24.60933-3.52607-24.99458-3.6005a10.69827,10.69827,0,1,1,4.06151-21.00751c.94943.17892,9.58829,1.77479,23.36214,3.34976,5.75271.6582,11.75225,1.23282,17.87193,1.71471a10.69891,10.69891,0,0,1,21.12244,1.255c14.79511.59551,29.05478.57592,43.77545-.047A10.70266,10.70266,0,0,1,143.56,38.12378c5.73312-.46361,11.35915-1.0095,16.75534-1.62591,13.82479-1.5802,22.42055-3.17215,23.35561-3.34846a10.67572,10.67572,0,0,1,12.53973,8.473v.00131a10.71061,10.71061,0,0,1-8.47039,12.5319c-.9873.18936-10.02186,1.8884-24.99589,3.6005-6.38087.72872-13.02816,1.35949-19.79037,1.878l-1.24065,27.66655c16.61691-1.58542,26.69885-3.513,26.80332-3.5326a10.69876,10.69876,0,0,1,4.06673,21.00751c-1.33207.256-13.12219,2.46825-31.83907,4.12027l-2.29847,51.15407A10.677,10.677,0,0,1,127.76319,170.26766ZM29.4591,88.92394A5.34834,5.34834,0,0,0,28.43262,99.523a344.83737,344.83737,0,0,0,34.7435,4.33575l2.35071.18936,2.50351,55.76146a5.33584,5.33584,0,0,0,5.33742,5.10888,5.40682,5.40682,0,0,0,5.35048-5.58947L76.267,104.73247l2.924.1319c14.37068.65167,28.52065.63208,42.74506-.05093l2.93055-.13974L122.414,159.329a5.35593,5.35593,0,0,0,5.10365,5.58424h.01045a5.38923,5.38923,0,0,0,5.5738-5.10365l2.50742-55.849,2.34549-.19459c19.7982-1.64419,32.25958-3.98184,33.61516-4.243a5.34975,5.34975,0,0,0-2.03728-10.50376c-.10186.0209-11.74049,2.241-30.39468,3.88912l-3.04286.269L137.82423,54.648l2.37161-.17239c7.5066-.54458,14.88783-1.2289,21.94258-2.03467,14.77552-1.68859,23.62725-3.35368,24.58843-3.53782a5.35884,5.35884,0,0,0,1.96937-9.698,5.27556,5.27556,0,0,0-3.99882-.80577c-.98991.18675-9.76328,1.81135-23.77613,3.41375-6.29207.71827-12.88712,1.34252-19.60492,1.85184l-3.02719.22985.15149-3.0298a5.39751,5.39751,0,0,0-5.09321-5.78014,5.33363,5.33363,0,0,0-5.58424,5.10365l-.19589,4.35273-2.4369.11492c-16.50721.77051-32.53253.7901-49.1194.05224L73.56757,44.6l-.1985-4.4115a5.34935,5.34935,0,1,0-10.6879.48059l.14627,3.30275-3.00238-.222c-7.1109-.525-14.0912-1.17666-20.74632-1.93672-13.96061-1.59718-22.77447-3.2257-23.733-3.40592A5.34894,5.34894,0,1,0,13.27707,48.9031c.37611.07313,9.40807,1.80352,24.58712,3.53782,7.45175.85148,15.21432,1.56322,23.07092,2.11695l2.37683.16716,1.73169,38.5412L62.006,93.00634c-19.03553-1.63244-31.0346-3.89043-31.53609-3.98576A5.32976,5.32976,0,0,0,29.4591,88.92394ZM100,94.6427c-7.14224,0-14.47123-.18283-21.78456-.542l-2.43037-.12015L74.04946,55.33882l2.91488.12276c15.819.66473,31.28273.65036,47.19965-.05224l2.9201-.12929-1.7343,38.63523-2.42384.12537C115.22085,94.44027,107.50791,94.6427,100,94.6427ZM80.90962,88.8704c13.20446.57854,26.07852.56286,39.31563-.05224L121.479,60.87474c-14.11471.5485-27.79323.56286-41.82436.04571Z" transform="translate(-3.59424 -29.73234)"/></svg>