<svg id="Ebene_1" data-name="Ebene 1" xmlns="http://www.w3.org/2000/svg" xmlns:xlink="http://www.w3.org/1999/xlink" viewBox="0 0 69.811 50.88375"><defs><style>.cls-1{fill:url(#Unbenannter_Verlauf_20);}</style><linearGradient id="Unbenannter_Verlauf_20" x1="12.17295" y1="35.34364" x2="69.25106" y2="2.38958" gradientUnits="userSpaceOnUse"><stop offset="0" stop-color="#e93c8e"/><stop offset="0.0841" stop-color="#e93f84"/><stop offset="0.71011" stop-color="#ea553a"/><stop offset="1" stop-color="#eb5d1d"/></linearGradient></defs><title>logo</title><path class="cls-1" d="M46.20746,52.41127c-.05589,0-.11282-.00138-.17009-.00345a3.87986,3.87986,0,0,1-3.70162-4.04421l.79318-17.66919c-2.32882.09678-4.67006.14577-6.9737.14577-2.15908,0-4.36214-.04364-6.56313-.1299l.79266,17.65332A3.8786,3.8786,0,0,1,26.689,52.40747c-.063.00242-.12006.0038-.1763.0038a3.8653,3.8653,0,0,1-3.86739-3.69955L21.8154,30.22606C14.638,29.60988,10.07331,28.73683,9.87545,28.6987a3.87366,3.87366,0,0,1,1.468-7.607c.04157.00794,3.90241.74074,10.12088,1.31759l-.44989-10.02324c-2.58741-.19321-5.1322-.4323-7.57677-.71176-5.594-.63948-8.91162-1.27688-9.05014-1.30379A3.87328,3.87328,0,1,1,5.85867,2.765c.3438.06469,3.47011.64224,8.45879,1.21271,2.08007.23754,4.25243.4461,6.47067.62085a3.87386,3.87386,0,0,1,7.648.45438c2.60448.10454,5.19689.15732,7.71909.15732,2.65624,0,5.387-.05865,8.13052-.1744a3.875,3.875,0,0,1,7.64095-.46956c2.07662-.16785,4.11321-.36554,6.06632-.58859,5.00265-.572,8.11775-1.14837,8.45655-1.21237a3.86625,3.86625,0,0,1,4.541,3.06766v.00069a3.87874,3.87874,0,0,1-3.06714,4.53706c-.35295.06779-3.59915.68053-9.05,1.30362-2.31088.26393-4.71733.49233-7.16587.68019l-.44989,10.01669c5.93176-.56685,9.66719-1.27136,9.70549-1.27878a3.87366,3.87366,0,0,1,1.4725,7.6061c-.48163.09281-4.74527.89306-11.52887,1.492l-.83148,18.52119A3.86588,3.86588,0,0,1,46.20746,52.41127ZM45.159,28.66161l-.8884,19.78893a1.93962,1.93962,0,0,0,1.84788,2.02211c.02588.001.058.00173.089.00173a1.93237,1.93237,0,0,0,1.93309-1.8496l.90772-20.22106.84907-.07055C57.196,27.72664,61.873,26.83461,62.06862,26.797a1.937,1.937,0,0,0-.73763-3.803c-.03726.00725-4.245.8106-11.00514,1.40781l-1.10231.09729.62654-13.94981.85873-.06227c2.71765-.19717,5.39079-.44506,7.94455-.73677,5.47186-.62568,8.76568-1.2548,8.903-1.2812a1.93978,1.93978,0,0,0,.71279-3.51134,1.9122,1.9122,0,0,0-1.447-.29171c-.35985.06779-3.53877.656-8.609,1.23583-2.27741.26014-4.66558.48595-7.09859.67087l-1.09058.083.05313-1.16838a1.93677,1.93677,0,0,0-3.86964-.17371l-.07073,1.5767-.88254.04123c-3.06818.143-6.12945.21563-9.099.21563-2.835,0-5.75719-.06624-8.68581-.19666L26.585,6.91112l-.07193-1.5974a1.93677,1.93677,0,1,0-3.86964.17406l.05227,1.19615-1.08644-.08039c-2.57844-.19062-5.10564-.42678-7.51174-.70175C9.04139,5.32356,5.85142,4.73428,5.50434,4.6689A1.93661,1.93661,0,1,0,4.7555,8.469c.13593.02639,3.382.65017,8.9023,1.2812,2.68729.30723,5.49774.56513,8.35356.76644l.86063.06072.62637,13.95412-1.09955-.09436c-6.98249-.59859-11.37637-1.4349-11.41984-1.44318a1.93687,1.93687,0,0,0-.73573,3.80322,125.82318,125.82318,0,0,0,12.57908,1.56928l.85131.06848.90651,20.18984a1.93686,1.93686,0,1,0,3.86981-.17423l-.88771-19.76772,1.05884.048c2.52289.11454,5.05785.17251,7.53416.17251,2.62311,0,5.29556-.06417,7.94248-.19079Zm-9.00374-3.63175c-2.59017,0-5.244-.06624-7.88763-.19666l-.88012-.04347L26.7594,10.799l1.05556.04433c2.7901.11748,5.59624.177,8.34028.177,2.85979,0,5.80376-.06572,8.74912-.19545l1.0578-.04658-.62792,13.98793-.87771.04554C41.67057,24.95638,38.87771,25.02986,36.15524,25.02986Zm-6.91211-2.09007c2.31985.10178,4.64091.15318,6.91211.15318,2.40334,0,4.86258-.05779,7.32319-.17216l.454-10.11726c-2.62.102-5.23139.1537-7.77722.1537-2.42525,0-4.89829-.04606-7.36632-.13714Z" transform="translate(-1.25 -1.52752)"/></svg>

